<?xml version="1.0" standalone="no"?>
<!DOCTYPE svg PUBLIC "-//W3C//DTD SVG 20010904//EN"
 "http://www.w3.org/TR/2001/REC-SVG-20010904/DTD/svg10.dtd">
<svg version="1.0" xmlns="http://www.w3.org/2000/svg"
 width="700.000000pt" height="700.000000pt" viewBox="0 0 700.000000 700.000000"
 preserveAspectRatio="xMidYMid meet">
<metadata>
Created by potrace 1.11, written by Peter Selinger 2001-2013
</metadata>
<g transform="translate(0.000000,700.000000) scale(0.100000,-0.100000)"
fill="#000000" stroke="none">
<path d="M0 3500 l0 -3500 3500 0 3500 0 0 3500 0 3500 -3500 0 -3500 0 0
-3500z m1565 2618 c3 -10 74 -1208 101 -1723 9 -169 10 -168 79 55 35 113 117
369 183 570 l119 365 103 0 103 0 201 -572 201 -572 7 162 c14 310 89 1702 93
1715 5 14 250 18 259 4 4 -6 -138 -2163 -143 -2179 -1 -2 -88 -3 -194 -3
l-192 0 -142 408 c-78 224 -154 451 -170 504 -15 54 -31 98 -34 98 -3 0 -18
-44 -33 -98 -15 -53 -87 -279 -160 -502 l-132 -405 -187 -3 -187 -2 -4 22 c-5
23 -147 2105 -146 2146 0 22 2 22 135 22 100 0 137 -3 140 -12z m4145 -118 l0
-130 -320 0 -320 0 0 -965 0 -965 -150 0 -150 0 0 965 0 965 -325 0 -325 0 0
130 0 130 795 0 795 0 0 -130z m-3165 -2929 c66 -12 128 -24 138 -27 15 -5 17
-20 17 -135 0 -71 -3 -129 -8 -129 -4 0 -61 11 -127 25 -306 63 -575 53 -732
-28 -38 -20 -101 -90 -118 -131 -24 -57 -28 -131 -11 -189 13 -45 27 -65 84
-118 75 -71 167 -123 332 -189 368 -146 514 -230 609 -350 78 -99 111 -200
111 -343 0 -157 -47 -274 -155 -382 -175 -176 -484 -250 -900 -215 -117 10
-312 41 -387 61 l-38 10 0 144 0 144 43 -15 c141 -51 373 -84 582 -84 366 0
535 107 535 337 0 86 -24 136 -96 203 -74 66 -150 108 -362 195 -401 166 -503
229 -604 378 -51 76 -68 125 -75 224 -23 315 203 562 577 629 113 20 432 12
585 -15z m2479 -27 c246 -39 409 -129 509 -282 116 -176 137 -404 57 -622 -35
-97 -81 -168 -157 -243 -72 -70 -111 -98 -216 -148 -145 -69 -210 -80 -479
-86 l-238 -5 0 -394 0 -395 -147 3 -148 3 -3 1093 -2 1092 361 0 c283 0 384
-3 463 -16z"/>
<path d="M4510 2358 l0 -451 198 6 c208 6 272 15 362 49 230 89 315 304 231
586 -24 79 -102 162 -197 207 -96 45 -162 55 -386 55 l-208 0 0 -452z"/>
</g>
</svg>
