<svg xmlns="http://www.w3.org/2000/svg" viewBox="0 0 16 16">
  <path d="M0 0h16v16H0z" fill="#05327d"/>
  <path d="M6.902 2l-.336 5h-.884l-.62-1.78-.172-.57-.18.617L4.137 7h-.854L2.94 2h.642l.195 3.4.057.934.24-.79.606-1.857h.47l.697 1.99.233.657.015-.688.2-3.646H6.9zm6.158.582h-1.48V7h-.688V2.582h-1.48V2h3.65v.582zM6.5 12.646q0 .356-.145.623t-.405.44q-.26.17-.627.26-.364.09-.804.09-.2 0-.4-.02T3.74 14t-.34-.057q-.16-.03-.29-.066v-.66q.28.106.64.167.36.06.81.06.33 0 .55-.05.232-.05.38-.15.15-.1.21-.248.07-.147.07-.334 0-.2-.114-.34-.11-.15-.296-.26-.184-.117-.42-.21l-.48-.194q-.244-.1-.48-.215-.234-.12-.42-.277-.183-.16-.3-.374-.11-.216-.11-.51 0-.257.11-.506.105-.248.33-.44.227-.195.58-.313.356-.12.846-.12.127 0 .27.01.15.012.3.035.154.02.3.044.15.024.274.054v.61q-.293-.08-.59-.124Q5.28 9.49 5 9.49q-.582 0-.86.194-.273.194-.273.523 0 .204.11.35.12.146.3.26.186.115.42.21l.48.192q.248.1.48.214.24.12.42.283.187.16.298.38.118.217.118.515zm6.388-2.116q0 .306-.114.61-.115.297-.356.534-.24.237-.616.387-.375.15-.895.15h-.62V14h-.68V9h1.407q.37 0 .712.084.34.08.596.264.26.184.413.474.153.29.153.708zm-.707.03q0-.48-.31-.737-.31-.256-.88-.256h-.69v2.058h.64q.607 0 .93-.264.33-.26.33-.8z" fill="#ffffff"/>
</svg>